<?xml version="1.0" encoding="iso-8859-1"?>
<!-- Uploaded to: SVG Repo, www.svgrepo.com, Generator: SVG Repo Mixer Tools -->
<svg version="1.1" id="Layer_1" xmlns="http://www.w3.org/2000/svg" xmlns:xlink="http://www.w3.org/1999/xlink" 
	 viewBox="0 0 512.001 512.001" xml:space="preserve">
<g>
	<path style="fill:#DD2645;" d="M224.469,151.618h99.466c6.652,0,11.301,5.156,12.095,11.348l11.059,86.316
		c1.618,12.63-6.556,22.284-23.081,22.284h-56.894v35.844c0,11.727-9.597,21.321-21.324,21.321h-21.321v-57.165h-49.763V151.618
		H224.469L224.469,151.618z M256,16.517L91.209,59.168c0,47.728-34.815,87.314-80.439,94.772
		c37.461,118.135,137.48,255.825,245.229,341.541c107.748-85.716,207.762-223.406,245.23-341.541
		c-45.623-7.457-80.44-47.043-80.44-94.772L256,16.517z"/>
	<rect x="174.711" y="151.62" style="fill:#565164;" width="49.757" height="119.945"/>
	<path style="fill:#FFCD85;" d="M224.469,151.618v119.949v57.165h21.324c11.726,0,21.324-9.594,21.324-21.321v-35.844h56.894
		c16.525,0,24.699-9.655,23.081-22.284l-11.059-86.316c-0.794-6.193-5.444-11.348-12.095-11.348H224.469z"/>
</g>
<g>
	<path style="fill:#000003;" d="M510.407,148.303c-1.637-2.666-4.352-4.487-7.439-4.992c-41.376-6.762-71.407-42.148-71.407-84.143
		c0-4.908-3.319-9.196-8.071-10.425L258.699,6.093c-1.772-0.459-3.626-0.459-5.398,0L88.511,48.743
		c-4.752,1.229-8.071,5.517-8.071,10.425c0,41.994-30.03,77.38-71.406,84.143c-3.088,0.505-5.802,2.326-7.44,4.992
		c-1.637,2.666-2.036,5.911-1.09,8.892c37.745,119.028,137.726,258.362,248.791,346.716c1.962,1.561,4.333,2.341,6.705,2.341
		c2.373,0,4.742-0.781,6.705-2.341c111.057-88.347,211.038-227.682,248.791-346.714
		C512.442,154.213,512.045,150.967,510.407,148.303z M256,481.644C154.158,398.362,62.988,272.156,24.734,161.818
		c19.909-5.738,37.892-17.238,51.54-33.149c14.743-17.189,23.595-38.613,25.373-61.077L256,27.642l154.353,39.95
		c1.778,22.463,10.63,43.888,25.375,61.076c13.648,15.911,31.629,27.411,51.539,33.149C449.005,272.16,357.837,398.368,256,481.644z
		"/>
	<path style="fill:#000003;" d="M174.131,92.528c0.895,0,1.805-0.112,2.712-0.347l0.308-0.08c5.758-1.494,9.215-7.371,7.721-13.128
		c-1.493-5.758-7.372-9.218-13.13-7.722l-0.308,0.08c-5.758,1.494-9.215,7.373-7.721,13.13
		C164.971,89.311,169.342,92.528,174.131,92.528z"/>
	<path style="fill:#000003;" d="M143.385,78.588l-16.477,4.27c-3.806,0.987-6.772,3.968-7.739,7.777
		c-7.591,29.922-23.428,52.407-51.353,72.907c-4.795,3.52-5.828,10.261-2.307,15.055c2.11,2.876,5.377,4.398,8.689,4.398
		c2.213,0,4.445-0.68,6.365-2.09c30.304-22.247,48.332-46.737,57.781-78.76l10.442-2.705c5.759-1.492,9.217-7.369,7.725-13.126
		C155.02,80.554,149.142,77.096,143.385,78.588z"/>
	<path style="fill:#000003;" d="M262.911,418.743l-0.178,0.168c-4.331,4.079-4.535,10.894-0.458,15.226
		c2.12,2.251,4.978,3.387,7.843,3.387c2.648,0,5.302-0.971,7.382-2.931l0.325-0.307c4.292-4.118,4.432-10.936,0.314-15.23
		C274.022,414.763,267.203,414.626,262.911,418.743z"/>
	<path style="fill:#000003;" d="M354.65,333.203c-4.659-3.698-11.435-2.915-15.131,1.746c-17.39,21.924-35.883,42.956-54.97,62.51
		c-4.154,4.257-4.072,11.075,0.185,15.23c2.094,2.044,4.809,3.063,7.521,3.063c2.8,0,5.598-1.086,7.708-3.248
		c19.599-20.081,38.586-41.669,56.432-64.17C360.092,343.673,359.31,336.899,354.65,333.203z"/>
	<path style="fill:#000003;" d="M277.886,307.41v-25.074h46.124c14.551,0,22.737-5.829,27.04-10.719
		c5.494-6.243,7.88-14.659,6.723-23.705l-11.06-86.316c-1.542-12.024-11.121-20.749-22.777-20.749h-99.466h-49.763
		c-5.947,0-10.77,4.824-10.77,10.77v119.949c0,5.949,4.823,10.77,10.77,10.77h38.993v46.395c0,5.946,4.822,10.77,10.77,10.77h21.324
		C263.487,339.501,277.886,325.105,277.886,307.41z M185.476,260.796v-98.409h28.223v98.409H185.476z M256.346,271.566v35.844
		c0,5.818-4.733,10.551-10.554,10.551h-10.554v-46.395V162.388h88.696c1.131,0,1.387,1.748,1.412,1.946l11.06,86.316
		c0.372,2.896-0.143,5.164-1.527,6.736c-1.935,2.2-5.796,3.412-10.871,3.412h-56.894
		C261.168,260.796,256.346,265.619,256.346,271.566z"/>
</g>
</svg>